<svg width="24" height="24" viewBox="0 0 24 24" fill="none" xmlns="http://www.w3.org/2000/svg">
<path d="M3.21216 12.6854C2.99138 10.9973 2.88099 10.1532 3.19357 9.4071C3.50614 8.66098 4.18518 8.14765 5.54326 7.121L8.3814 4.97547C10.1227 3.65914 10.9933 3.00098 11.9996 3.00098C13.006 3.00098 13.8766 3.65914 15.6179 4.97547L18.456 7.12099C19.8141 8.14765 20.4931 8.66098 20.8057 9.4071C21.1183 10.1532 21.0079 10.9973 20.7871 12.6854L20.3826 15.7783C20.0573 18.2658 19.8946 19.5096 19.0454 20.2549C18.1963 21.0002 16.942 21.0002 14.4333 21.0002H9.56602C7.05732 21.0002 5.80298 21.0002 4.95383 20.2549C4.10468 19.5096 3.94201 18.2658 3.61668 15.7783L3.21216 12.6854Z" stroke="#000" stroke-width="1" stroke-linecap="round" stroke-linejoin="round"/>
<path d="M13 16C13 16.5523 12.5523 17 12 17C11.4477 17 11 16.5523 11 16C11 15.4477 11.4477 15 12 15C12.5523 15 13 15.4477 13 16Z" stroke="#000" stroke-width="1.5" stroke-linecap="round" stroke-linejoin="round"/>
</svg>
